<?xml version="1.0" standalone="no"?>
   <!DOCTYPE svg PUBLIC "-//W3C//DTD SVG 1.1//EN" 
   "http://www.w3.org/Graphics/SVG/1.1/DTD/svg11.dtd"><svg id="svg" version="1.1" width="1038" height="513" xmlns="http://www.w3.org/2000/svg"><path d="M495.903 95.208 C 484.342 110.627,475.159 118.982,456.829 130.757 C 441.878 140.362,434.853 151.480,439.245 158.588 C 440.241 160.198,439.265 163.313,437.078 165.508 C 426.968 175.655,422.308 186.292,424.084 195.171 C 425.462 202.059,423.916 207.342,417.730 216.886 C 413.235 223.824,408.806 230.175,407.888 231.000 C 406.971 231.825,399.578 241.275,391.461 252.000 C 383.343 262.725,375.635 271.953,374.332 272.506 C 373.029 273.060,372.726 274.747,373.658 276.256 C 374.591 277.765,373.921 279.000,372.170 279.000 C 368.761 279.000,348.000 299.875,348.000 303.304 C 348.000 307.566,338.055 308.951,333.655 305.302 C 328.978 301.422,301.942 260.232,294.195 245.181 C 288.859 234.815,285.625 235.810,275.398 250.965 C 270.941 257.567,261.190 269.614,253.728 277.735 C 246.265 285.856,239.372 296.073,238.410 300.439 C 236.031 311.231,226.727 319.151,218.849 317.091 C 214.359 315.917,207.432 319.285,195.193 328.593 C 185.674 335.833,171.274 345.151,163.193 349.301 L 148.500 356.846 160.117 356.923 C 169.475 356.985,171.087 357.781,168.403 361.014 C 166.571 363.222,159.527 366.690,152.750 368.721 C 142.041 371.929,139.694 371.748,134.826 367.342 C 128.587 361.696,120.000 363.392,120.000 370.270 C 120.000 376.880,138.854 379.354,155.370 374.912 C 178.779 368.616,198.124 350.443,184.581 347.470 C 181.950 346.892,186.700 342.051,196.327 335.501 C 210.506 325.853,214.052 324.712,225.202 326.208 C 236.747 327.756,237.406 328.284,232.383 331.956 C 229.342 334.180,224.411 336.000,221.427 336.000 C 218.442 336.000,216.000 337.316,216.000 338.925 C 216.000 342.115,232.163 339.860,240.750 335.472 C 247.183 332.185,247.617 324.432,241.500 322.085 C 235.181 319.660,235.895 316.913,243.750 313.427 C 248.725 311.219,250.341 308.197,249.897 301.933 C 249.542 296.938,251.729 290.820,255.200 287.094 C 258.449 283.606,266.642 272.259,273.406 261.877 C 280.170 251.494,286.896 243.000,288.352 243.000 C 290.736 243.000,292.565 258.446,291.550 270.000 C 291.332 272.475,290.899 279.542,290.587 285.703 C 290.186 293.621,288.404 297.420,284.510 298.656 C 276.206 301.291,277.897 305.968,287.250 306.237 C 291.788 306.367,293.855 307.140,291.845 307.955 C 286.198 310.244,283.363 330.134,288.254 333.157 C 290.576 334.592,293.970 334.270,296.222 332.401 C 302.853 326.897,304.124 332.345,298.264 341.156 C 295.213 345.745,293.088 351.855,293.544 354.733 C 294.013 357.703,287.614 367.112,278.751 376.483 C 270.159 385.567,264.819 393.000,266.883 393.000 C 273.407 393.000,294.184 374.598,302.105 361.805 C 310.993 347.451,323.926 333.000,327.886 333.000 C 330.537 333.000,329.285 341.553,325.003 352.713 C 323.624 356.308,324.094 357.296,326.482 355.820 C 328.408 354.630,334.183 344.948,339.317 334.304 C 350.446 311.228,353.928 308.252,354.211 321.573 C 354.671 343.225,359.577 343.583,359.789 321.980 C 359.971 303.372,361.052 299.210,367.773 291.222 C 376.370 281.006,383.096 281.479,377.515 291.907 C 372.803 300.711,370.859 319.059,374.903 316.560 C 376.606 315.507,378.000 312.963,378.000 310.906 C 378.000 308.849,381.408 302.547,385.573 296.901 C 389.738 291.255,392.855 284.581,392.498 282.068 C 391.545 275.346,395.695 263.898,403.399 252.000 C 407.138 246.225,415.904 232.484,422.878 221.464 C 436.887 199.329,446.117 192.158,442.609 206.135 L 440.550 214.337 447.053 208.452 C 458.551 198.046,459.673 193.080,453.333 180.653 C 450.125 174.365,446.583 164.327,445.461 158.345 C 443.517 147.985,444.040 147.070,456.460 139.079 C 468.605 131.265,475.667 124.706,498.803 99.750 C 503.775 94.388,508.839 90.000,510.056 90.000 C 513.762 90.000,517.788 111.849,516.094 122.762 C 513.983 136.349,507.628 138.045,503.162 126.212 C 498.738 114.493,491.252 115.259,490.568 127.500 C 490.291 132.450,489.040 141.345,487.789 147.266 C 485.528 157.964,485.573 158.024,494.757 156.676 C 504.466 155.251,507.387 148.112,499.500 145.085 C 497.025 144.135,495.000 141.320,495.000 138.829 C 495.000 134.402,498.751 134.527,510.392 139.343 C 514.013 140.841,516.118 138.979,518.486 132.184 C 522.385 121.000,525.918 120.544,530.514 130.630 C 533.547 137.287,533.321 138.148,528.745 137.380 C 525.069 136.763,523.261 138.744,522.701 144.000 C 520.730 162.512,515.322 173.386,507.289 174.992 C 498.588 176.732,483.000 187.787,483.000 192.218 C 483.000 196.772,491.215 195.373,493.085 190.500 C 495.723 183.626,501.713 185.026,499.500 192.000 C 498.408 195.442,498.961 198.000,500.798 198.000 C 502.559 198.000,504.000 196.022,504.000 193.606 C 504.000 188.459,512.842 183.216,518.250 185.155 C 520.313 185.895,522.169 184.363,522.375 181.750 C 523.213 171.135,523.644 169.952,527.093 168.802 C 531.935 167.188,528.667 188.789,523.094 195.236 C 516.765 202.558,518.117 208.757,529.500 224.601 C 535.275 232.640,540.000 240.717,540.000 242.551 C 540.000 247.901,555.214 250.479,558.322 245.656 C 560.154 242.813,561.711 242.522,563.250 244.735 C 565.655 248.192,584.261 258.000,588.416 258.000 C 589.788 258.000,597.529 262.073,605.618 267.050 C 621.037 276.538,626.596 286.249,619.031 290.482 C 615.184 292.636,615.215 293.444,619.275 296.813 C 623.157 300.035,624.270 299.787,625.985 295.317 C 628.985 287.500,637.325 279.942,641.438 281.313 C 645.938 282.813,646.139 291.000,641.675 291.000 C 639.598 291.000,639.079 293.907,640.292 298.739 C 642.053 305.754,641.592 306.268,635.367 304.225 C 631.590 302.986,626.164 302.117,623.309 302.295 C 620.454 302.473,617.476 301.580,616.692 300.311 C 615.908 299.041,604.069 292.339,590.383 285.417 C 572.580 276.412,563.521 269.790,558.543 262.142 C 552.979 253.592,550.211 251.799,544.714 253.178 C 540.083 254.341,536.107 252.986,532.520 249.022 C 529.593 245.788,526.018 243.871,524.576 244.762 C 523.134 245.653,523.989 248.418,526.477 250.906 C 532.918 257.347,532.100 260.610,523.500 262.768 C 519.375 263.803,516.000 266.529,516.000 268.825 C 516.000 273.816,518.265 273.990,530.000 269.899 C 537.150 267.407,541.504 267.982,552.197 272.833 C 559.514 276.153,563.264 278.898,560.531 278.934 C 556.997 278.981,556.030 280.789,557.182 285.197 C 558.878 291.682,552.846 306.000,548.419 306.000 C 547.007 306.000,544.568 302.625,543.000 298.500 C 541.293 294.011,537.781 291.000,534.251 291.000 C 526.382 291.000,523.678 295.962,529.708 299.337 C 537.393 303.637,534.106 316.397,525.298 316.454 C 520.874 316.482,517.806 318.445,517.344 321.541 C 516.773 325.369,518.793 326.519,525.743 326.322 C 530.776 326.179,536.381 327.960,538.197 330.281 C 540.014 332.601,543.525 334.500,546.000 334.500 C 548.677 334.500,552.293 339.968,554.927 348.000 C 557.362 355.425,559.817 362.155,560.382 362.955 C 562.262 365.616,572.561 349.717,570.802 346.870 C 569.851 345.332,570.632 345.036,572.536 346.214 C 576.841 348.874,577.037 361.458,572.894 369.197 C 570.968 372.798,570.891 375.000,572.692 375.000 C 578.478 375.000,579.506 387.281,574.375 395.111 C 569.462 402.610,569.482 402.834,574.877 400.607 C 577.970 399.330,582.188 398.221,584.250 398.143 C 586.313 398.064,588.000 396.795,588.000 395.323 C 588.000 393.851,589.462 393.550,591.249 394.654 C 595.811 397.473,577.220 408.280,571.550 406.104 C 569.048 405.144,567.000 405.853,567.000 407.679 C 567.000 412.671,582.708 411.670,590.548 406.179 C 596.985 401.670,597.865 401.767,604.159 407.679 C 612.036 415.080,622.533 416.322,619.933 409.546 C 617.746 403.847,626.996 398.776,635.515 401.004 C 639.616 402.076,642.000 405.063,642.000 409.128 C 642.000 414.769,652.791 425.209,655.658 422.342 C 658.423 419.577,640.794 389.123,635.650 387.778 C 631.220 386.619,630.648 385.334,633.195 382.265 C 635.022 380.064,635.844 377.174,635.021 375.844 C 634.199 374.513,635.323 370.068,637.519 365.965 L 641.511 358.506 643.625 366.932 C 644.976 372.314,647.209 374.794,649.807 373.797 C 653.709 372.300,668.624 390.999,672.901 402.750 C 675.813 410.752,682.121 409.332,679.566 401.250 C 676.299 390.912,672.463 365.806,672.219 353.156 C 671.912 337.264,678.742 335.547,691.290 348.360 C 696.751 353.937,703.083 359.994,705.360 361.820 C 707.637 363.646,712.345 368.371,715.823 372.320 C 722.782 380.222,734.236 390.000,736.534 390.000 C 740.257 390.000,737.312 382.997,730.500 375.650 C 717.130 361.231,721.802 361.158,747.000 375.395 C 767.770 387.130,777.748 391.407,792.243 394.788 C 812.473 399.507,831.534 400.878,836.264 397.955 C 841.622 394.644,837.144 387.000,829.847 387.000 C 826.265 387.000,820.672 385.176,817.418 382.948 C 814.163 380.719,807.450 377.972,802.500 376.844 C 797.550 375.716,789.450 372.909,784.500 370.607 C 779.550 368.305,768.072 363.606,758.993 360.164 C 748.248 356.091,740.394 350.775,736.493 344.936 C 733.197 340.002,728.475 335.302,726.000 334.491 C 723.525 333.680,712.050 324.218,700.500 313.464 C 687.250 301.127,677.600 294.368,674.353 295.148 C 671.521 295.828,669.496 295.409,669.853 294.217 C 670.209 293.025,662.063 283.513,651.750 273.079 C 641.438 262.645,633.000 253.166,633.000 252.013 C 633.000 246.308,671.468 216.000,678.710 216.000 C 679.969 216.000,681.000 221.070,681.000 227.268 C 681.000 236.735,682.348 239.132,689.436 242.270 C 698.843 246.434,711.000 256.867,711.000 260.776 C 711.000 264.632,693.575 266.375,690.070 262.870 C 687.977 260.777,687.000 261.443,687.000 264.964 C 687.000 267.805,690.093 271.538,693.873 273.260 C 697.653 274.982,702.041 279.231,703.623 282.700 C 707.492 291.184,716.450 296.600,719.335 292.199 C 723.060 286.519,733.221 282.867,740.143 284.721 C 743.796 285.699,752.126 291.575,758.655 297.777 C 765.256 304.050,774.957 309.896,780.512 310.950 C 793.614 313.435,798.000 317.176,798.000 325.867 C 798.000 331.559,799.585 333.000,805.844 333.000 C 810.158 333.000,820.283 336.590,828.344 340.977 C 839.440 347.016,843.000 350.659,843.000 355.977 C 843.000 362.698,845.690 364.370,854.544 363.156 C 856.768 362.852,860.818 364.557,863.544 366.946 C 866.270 369.335,871.538 372.216,875.250 373.347 C 880.737 375.019,882.000 374.244,882.000 369.202 C 882.000 361.025,880.987 358.338,878.250 359.250 C 877.013 359.662,876.000 357.300,876.000 354.000 C 876.000 350.700,875.746 346.992,875.436 345.761 C 874.405 341.665,900.063 324.213,904.573 325.943 C 907.294 326.987,909.000 325.862,909.000 323.023 C 909.000 316.829,920.184 313.588,925.716 318.180 C 932.877 324.122,934.583 318.588,927.857 311.238 C 924.465 307.532,920.768 301.463,919.643 297.750 C 916.888 288.666,914.238 289.253,909.481 300.000 C 907.290 304.950,903.603 309.000,901.289 309.000 C 896.909 309.000,876.223 288.427,876.081 283.930 C 876.037 282.516,869.051 274.836,860.558 266.862 L 845.117 252.365 828.929 268.683 C 820.026 277.657,811.095 285.000,809.083 285.000 C 807.071 285.000,802.890 288.375,799.792 292.500 C 791.176 303.973,781.942 302.286,775.530 288.067 C 772.571 281.504,767.303 275.249,763.825 274.167 C 755.543 271.590,735.086 255.778,727.543 246.124 C 724.267 241.931,713.129 230.200,702.793 220.055 C 692.457 209.911,684.000 200.123,684.000 198.305 C 684.000 196.487,681.975 195.000,679.500 195.000 C 676.754 195.000,675.000 197.798,675.000 202.179 C 675.000 206.128,673.206 210.047,671.013 210.888 C 662.220 214.262,633.000 238.126,633.000 241.932 C 633.000 244.169,630.975 246.000,628.500 246.000 C 626.025 246.000,624.000 244.140,624.000 241.867 C 624.000 239.594,621.981 236.059,619.514 234.011 C 617.046 231.964,613.419 224.919,611.453 218.357 C 609.364 211.384,605.306 205.366,601.689 203.877 C 586.295 197.541,558.337 166.201,544.261 139.500 C 536.432 124.650,529.196 111.825,528.181 111.000 C 527.165 110.175,523.804 103.763,520.712 96.750 C 513.658 80.756,507.046 80.345,495.903 95.208 M543.245 150.000 C 544.760 150.000,546.000 151.350,546.000 153.000 C 546.000 154.650,543.975 156.000,541.500 156.000 C 539.025 156.000,537.000 157.350,537.000 159.000 C 537.000 160.650,535.650 162.000,534.000 162.000 C 532.350 162.000,531.000 158.481,531.000 154.179 C 531.000 148.280,532.166 146.806,535.745 148.179 C 538.355 149.181,541.730 150.000,543.245 150.000 M563.313 182.440 C 564.044 184.632,562.672 185.302,559.751 184.181 C 557.138 183.178,555.000 181.040,555.000 179.429 C 555.000 175.486,561.818 177.955,563.313 182.440 M577.579 197.421 C 576.656 198.344,574.235 197.423,572.200 195.372 C 569.259 192.409,569.604 192.065,573.879 193.693 C 576.838 194.819,578.503 196.497,577.579 197.421 M541.511 200.500 C 541.516 201.600,543.442 208.303,545.789 215.395 C 549.336 226.115,551.211 228.140,556.899 227.395 C 561.051 226.852,565.465 228.857,568.125 232.495 C 573.643 240.040,577.636 236.663,573.138 228.257 C 570.913 224.100,570.831 222.000,572.894 222.000 C 574.603 222.000,576.000 223.808,576.000 226.018 C 576.000 228.229,579.375 231.575,583.500 233.454 C 591.435 237.069,593.671 243.000,587.100 243.000 C 584.955 243.000,581.580 241.380,579.600 239.400 C 576.916 236.716,576.000 236.690,576.000 239.299 C 576.000 241.417,571.643 240.227,564.956 236.281 C 557.229 231.723,553.549 230.852,552.706 233.383 C 550.495 240.015,547.338 237.136,538.685 220.597 C 531.512 206.886,530.740 203.428,533.979 199.525 C 537.551 195.221,541.485 195.731,541.511 200.500 M586.500 210.000 C 589.486 213.300,590.418 216.000,588.571 216.000 C 586.723 216.000,583.766 213.300,582.000 210.000 C 580.234 206.700,579.302 204.000,579.929 204.000 C 580.557 204.000,583.514 206.700,586.500 210.000 M487.641 210.750 C 477.333 243.756,473.043 255.000,470.755 255.000 C 469.240 255.000,468.000 257.072,468.000 259.606 C 468.000 268.541,479.220 258.600,481.230 247.883 C 482.291 242.229,485.148 235.952,487.579 233.934 C 490.011 231.916,492.000 228.406,492.000 226.133 C 492.000 223.860,494.700 222.000,498.000 222.000 C 504.855 222.000,505.211 220.868,500.894 212.803 C 497.401 206.276,489.424 205.040,487.641 210.750 M694.380 224.250 C 695.594 228.298,695.123 231.000,693.202 231.000 C 691.441 231.000,690.000 230.654,690.000 230.230 C 690.000 229.807,688.666 224.808,687.035 219.122 C 684.501 210.287,684.672 209.418,688.213 213.142 C 690.492 215.539,693.267 220.538,694.380 224.250 M430.165 223.290 C 428.585 227.408,437.607 250.393,439.903 248.097 C 440.517 247.483,440.157 240.685,439.102 232.990 C 437.206 219.155,433.356 214.976,430.165 223.290 M706.500 237.000 C 707.520 238.650,706.924 240.000,705.177 240.000 C 703.430 240.000,702.000 238.650,702.000 237.000 C 702.000 235.350,702.595 234.000,703.323 234.000 C 704.051 234.000,705.480 235.350,706.500 237.000 M720.000 259.500 C 720.000 261.975,718.650 264.000,717.000 264.000 C 715.350 264.000,714.000 261.975,714.000 259.500 C 714.000 257.025,715.350 255.000,717.000 255.000 C 718.650 255.000,720.000 257.025,720.000 259.500 M493.530 261.049 C 494.567 262.726,496.671 263.321,498.207 262.372 C 502.368 259.800,501.593 258.000,496.323 258.000 C 493.751 258.000,492.494 259.372,493.530 261.049 M429.211 267.750 C 429.327 269.813,430.582 274.200,432.000 277.500 C 434.161 282.528,434.612 281.921,434.789 273.750 C 434.905 268.388,433.650 264.000,432.000 264.000 C 430.350 264.000,429.095 265.688,429.211 267.750 M854.906 296.292 C 855.041 301.726,873.521 317.808,879.750 317.912 C 887.589 318.043,886.101 325.028,876.390 333.680 C 865.704 343.201,851.651 346.580,842.426 341.845 C 831.379 336.175,813.000 317.265,813.000 311.568 C 813.000 308.700,811.650 305.520,810.000 304.500 C 805.021 301.423,806.628 291.522,812.404 289.689 C 815.376 288.746,823.019 282.637,829.388 276.115 L 840.968 264.255 847.890 278.378 C 851.697 286.145,854.855 294.207,854.906 296.292 M310.571 285.715 C 311.638 289.964,310.880 296.488,308.887 300.211 C 305.333 306.852,305.194 306.779,301.602 296.329 C 299.588 290.470,298.566 281.407,299.332 276.189 C 300.625 267.381,301.009 267.105,304.678 272.344 C 306.853 275.449,309.504 281.465,310.571 285.715 M637.813 275.188 C 634.763 278.237,632.247 273.646,634.749 269.597 C 636.639 266.539,637.346 266.537,638.362 269.585 C 639.057 271.670,638.809 274.191,637.813 275.188 M500.729 279.897 C 498.032 285.817,497.883 289.083,500.203 291.403 C 504.990 296.190,511.177 283.570,507.374 276.776 C 504.838 272.243,504.047 272.615,500.729 279.897 M489.000 286.500 C 489.000 290.625,490.350 294.000,492.000 294.000 C 493.650 294.000,495.000 290.625,495.000 286.500 C 495.000 282.375,493.650 279.000,492.000 279.000 C 490.350 279.000,489.000 282.375,489.000 286.500 M477.345 311.250 C 477.686 328.316,477.717 328.372,480.172 316.500 C 483.578 300.035,483.532 294.000,480.000 294.000 C 478.308 294.000,477.150 301.520,477.345 311.250 M868.500 300.000 C 869.520 301.650,868.249 303.000,865.677 303.000 C 863.105 303.000,861.000 301.650,861.000 300.000 C 861.000 298.350,862.270 297.000,863.823 297.000 C 865.376 297.000,867.480 298.350,868.500 300.000 M573.000 307.444 C 573.000 309.535,577.725 316.404,583.500 322.709 C 590.279 330.110,594.000 337.154,594.000 342.586 C 594.000 347.214,593.229 351.000,592.286 351.000 C 588.698 351.000,582.000 342.219,582.000 337.517 C 582.000 329.923,576.270 321.000,571.394 321.000 C 568.978 321.000,567.000 319.088,567.000 316.750 C 567.000 314.413,565.573 312.024,563.828 311.443 C 562.084 310.861,561.521 308.134,562.577 305.382 C 564.710 299.823,573.000 301.462,573.000 307.444 M523.407 306.151 C 520.556 310.763,524.461 313.739,528.311 309.889 C 530.466 307.734,530.518 306.056,528.469 304.790 C 526.789 303.752,524.511 304.364,523.407 306.151 M589.500 315.000 C 590.520 316.650,590.004 318.000,588.354 318.000 C 586.704 318.000,584.520 316.650,583.500 315.000 C 582.480 313.350,582.996 312.000,584.646 312.000 C 586.296 312.000,588.480 313.350,589.500 315.000 M570.000 327.000 C 570.000 328.650,569.405 330.000,568.677 330.000 C 567.949 330.000,566.520 328.650,565.500 327.000 C 564.480 325.350,565.076 324.000,566.823 324.000 C 568.570 324.000,570.000 325.350,570.000 327.000 M507.895 335.901 C 506.249 342.195,497.040 346.615,492.027 343.517 C 487.816 340.914,488.241 343.830,493.577 354.149 C 499.175 364.974,503.276 365.429,505.768 355.500 C 507.074 350.297,509.705 348.000,514.360 348.000 C 518.051 348.000,523.304 345.531,526.035 342.514 C 534.348 333.328,531.156 325.044,522.600 333.600 C 519.800 336.400,519.000 336.400,519.000 333.600 C 519.000 327.611,509.551 329.569,507.895 335.901 M435.000 353.805 C 435.000 356.997,433.461 363.410,431.579 368.055 L 428.158 376.500 425.961 369.000 C 423.981 362.243,423.538 362.768,421.491 374.293 C 419.649 384.665,418.441 386.441,415.110 383.676 C 411.917 381.027,411.000 381.352,411.000 385.133 C 411.000 387.810,409.735 390.000,408.189 390.000 C 406.642 390.000,406.144 385.275,407.081 379.500 C 408.079 373.352,407.539 369.000,405.779 369.000 C 402.571 369.000,397.586 398.586,400.332 401.332 C 401.229 402.229,404.531 400.639,407.670 397.798 C 411.759 394.099,413.725 393.676,414.603 396.308 C 415.685 399.554,423.327 389.476,434.028 370.692 C 439.676 360.777,442.096 348.000,438.325 348.000 C 436.496 348.000,435.000 350.612,435.000 353.805 M628.742 365.258 C 625.474 368.526,624.234 364.252,626.307 356.869 L 628.377 349.500 629.431 356.508 C 630.011 360.362,629.701 364.299,628.742 365.258 M595.290 368.660 C 596.194 370.123,595.044 372.889,592.734 374.806 C 588.058 378.687,583.269 374.227,586.500 369.000 C 588.796 365.286,593.101 365.119,595.290 368.660 M781.350 378.278 C 782.918 379.775,786.968 381.048,790.350 381.106 C 793.733 381.165,799.875 383.246,804.000 385.731 C 809.881 389.275,810.205 389.960,805.500 388.904 C 799.752 387.614,783.134 383.471,780.000 382.547 C 773.594 380.657,756.000 370.431,756.000 368.597 C 756.000 366.041,776.889 374.018,781.350 378.278 M103.500 375.000 C 104.520 376.650,106.624 378.000,108.177 378.000 C 109.730 378.000,111.000 376.650,111.000 375.000 C 111.000 373.350,108.895 372.000,106.323 372.000 C 103.751 372.000,102.480 373.350,103.500 375.000 M379.500 382.328 C 371.160 391.666,350.708 400.754,355.507 392.989 C 356.612 391.200,355.886 387.772,353.892 385.370 C 350.798 381.642,348.922 382.320,341.065 390.002 C 328.572 402.216,322.704 401.940,325.060 389.250 L 326.871 379.500 320.185 387.345 C 316.508 391.660,309.628 396.113,304.896 397.241 C 292.761 400.134,295.453 401.145,320.264 403.014 C 340.421 404.532,359.134 401.658,376.226 394.418 C 381.372 392.238,381.754 392.979,380.002 401.738 C 377.385 414.824,383.800 412.700,388.815 398.819 C 393.034 387.142,394.136 371.937,390.750 372.125 C 389.513 372.194,384.450 376.785,379.500 382.328 M624.000 394.500 C 627.120 398.260,626.687 399.000,621.367 399.000 C 617.707 399.000,615.000 397.087,615.000 394.500 C 615.000 392.025,616.185 390.000,617.633 390.000 C 619.081 390.000,621.946 392.025,624.000 394.500 M426.000 399.177 C 426.000 400.924,427.350 401.520,429.000 400.500 C 430.650 399.480,432.000 398.051,432.000 397.323 C 432.000 396.595,430.650 396.000,429.000 396.000 C 427.350 396.000,426.000 397.430,426.000 399.177 M660.000 423.094 C 660.000 424.692,662.025 426.000,664.500 426.000 C 666.975 426.000,669.000 425.469,669.000 424.821 C 669.000 424.172,666.975 422.865,664.500 421.915 C 662.025 420.965,660.000 421.496,660.000 423.094 " stroke="none" fill="black" fill-rule="evenodd"/></svg>